STARTFONT 2.1
FONT -MIT-20VG KST-Medium-R-Normal--20-7-200-200-P-11-ISO8859-1
SIZE 7 200 200
FONTBOUNDINGBOX 20 20 -3 -4
STARTPROPERTIES 17
ADD_STYLE_NAME ""
AVERAGE_WIDTH 11
CHARSET_ENCODING "1"
CHARSET_REGISTRY "ISO8859"
DEFAULT_CHAR 0
FAMILY "20VG KST"
FONT_ASCENT 16
FONT_DESCENT 4
FOUNDRY "MIT"
PIXEL_SIZE 20
POINT_SIZE 7
RESOLUTION_X 200
RESOLUTION_Y 200
SETWIDTH_NAME "Normal"
SLANT "R"
SPACING "P"
WEIGHT_NAME "Medium"
ENDPROPERTIES
CHARS 122
STARTCHAR char1
ENCODING 1
SWIDTH 1704 0
DWIDTH 12 0
BBX 10 20 0 -4
BITMAP
0000
0C00
0C00
0C00
0C00
0C00
0C00
0C00
0C00
0C00
0C00
CCC0
6D80
3F00
1E00
0C00
0000
0000
0000
0000
ENDCHAR
STARTCHAR char2
ENCODING 2
SWIDTH 2556 0
DWIDTH 18 0
BBX 15 20 1 -4
BITMAP
0000
0000
0000
0000
0004
000C
0018
1C18
3E30
6320
E3E0
C1E0
C180
63C2
3E66
1C3C
0000
0000
0000
0000
ENDCHAR
STARTCHAR char3
ENCODING 3
SWIDTH 2272 0
DWIDTH 16 0
BBX 14 20 0 -4
BITMAP
0000
0078
00CC
0184
0304
030C
0618
0670
0C60
0C30
1818
180C
320C
331C
31F8
60E0
6000
6000
E000
0000
ENDCHAR
STARTCHAR char4
ENCODING 4
SWIDTH 1846 0
DWIDTH 13 0
BBX 11 20 0 -4
BITMAP
0000
0000
0000
0000
0400
0E00
0E00
1B00
1B00
3180
3180
60C0
60C0
C060
C060
0000
0000
0000
0000
0000
ENDCHAR
STARTCHAR char5
ENCODING 5
SWIDTH 1278 0
DWIDTH 9 0
BBX 7 20 0 -4
BITMAP
00
00
00
00
00
00
00
00
00
FE
FE
06
06
06
00
00
00
00
00
00
ENDCHAR
STARTCHAR char6
ENCODING 6
SWIDTH 1278 0
DWIDTH 9 0
BBX 7 20 0 -4
BITMAP
00
00
00
1E
30
60
C0
C0
FE
C0
C0
60
70
1E
00
00
00
00
00
00
ENDCHAR
STARTCHAR char7
ENCODING 7
SWIDTH 1846 0
DWIDTH 13 0
BBX 11 20 0 -4
BITMAP
0000
0000
0000
0000
0000
0000
0000
FF80
3FC0
31E0
3180
3180
3180
3180
3180
F180
00E0
0000
0000
0000
ENDCHAR
STARTCHAR char8
ENCODING 8
SWIDTH 1562 0
DWIDTH 11 0
BBX 9 20 0 -4
BITMAP
0000
0000
E000
7000
3000
1800
0800
0C00
0C00
1C00
3600
2600
6300
C300
8180
0000
0000
0000
0000
0000
ENDCHAR
STARTCHAR char11
ENCODING 11
SWIDTH 1704 0
DWIDTH 12 0
BBX 10 20 0 -4
BITMAP
0000
0C00
1E00
3F00
6D80
CCC0
0C00
0C00
0C00
0C00
0C00
0C00
0C00
0C00
0C00
0C00
0000
0000
0000
0000
ENDCHAR
STARTCHAR char14
ENCODING 14
SWIDTH 2414 0
DWIDTH 17 0
BBX 15 20 0 -4
BITMAP
0000
0000
0000
0000
0000
0000
3C78
66CC
C386
8102
8102
8102
C386
66CC
3C78
0000
0000
0000
0000
0000
ENDCHAR
STARTCHAR char15
ENCODING 15
SWIDTH 1420 0
DWIDTH 10 0
BBX 8 20 0 -4
BITMAP
00
70
18
0C
06
06
03
03
3F
67
C3
81
81
C3
66
3C
00
00
00
00
ENDCHAR
STARTCHAR char16
ENCODING 16
SWIDTH 1846 0
DWIDTH 13 0
BBX 11 20 0 -4
BITMAP
0000
0000
0000
0000
0000
0000
3FE0
7FE0
E000
C000
C000
C000
E000
7FE0
3FE0
0000
0000
0000
0000
0000
ENDCHAR
STARTCHAR char17
ENCODING 17
SWIDTH 1846 0
DWIDTH 13 0
BBX 11 20 0 -4
BITMAP
0000
0000
0000
0000
0000
0000
FF80
FFC0
00E0
0060
0060
0060
00E0
FFC0
FF80
0000
0000
0000
0000
0000
ENDCHAR
STARTCHAR char18
ENCODING 18
SWIDTH 1704 0
DWIDTH 12 0
BBX 9 20 1 -4
BITMAP
0000
3E00
7F00
E380
C180
C180
C180
C180
C180
C180
C180
C180
C180
C180
C180
C180
0000
0000
0000
0000
ENDCHAR
STARTCHAR char19
ENCODING 19
SWIDTH 1704 0
DWIDTH 12 0
BBX 9 20 1 -4
BITMAP
0000
C180
C180
C180
C180
C180
C180
C180
C180
C180
C180
C180
C180
E380
7F00
3E00
0000
0000
0000
0000
ENDCHAR
STARTCHAR char20
ENCODING 20
SWIDTH 1846 0
DWIDTH 13 0
BBX 11 20 0 -4
BITMAP
0000
C060
C060
C060
60C0
7FC0
7FC0
3180
3180
3180
1B00
1B00
1B00
0E00
0E00
0400
0000
0000
0000
0000
ENDCHAR
STARTCHAR char21
ENCODING 21
SWIDTH 1562 0
DWIDTH 11 0
BBX 9 20 0 -4
BITMAP
0000
FF80
FF80
0180
0180
0180
0180
0F80
0F80
0180
0180
0180
0180
0180
FF80
FF80
0000
0000
0000
0000
ENDCHAR
STARTCHAR char22
ENCODING 22
SWIDTH 2130 0
DWIDTH 15 0
BBX 13 20 0 -4
BITMAP
0000
0000
0000
0F80
38E0
7070
78F0
CD98
8708
8708
8708
CD98
78F0
7070
38E0
0F80
0000
0000
0000
0000
ENDCHAR
STARTCHAR char23
ENCODING 23
SWIDTH 1988 0
DWIDTH 14 0
BBX 12 20 0 -4
BITMAP
0000
0000
0000
0000
0000
0000
0000
1080
30C0
6060
FFF0
FFF0
6060
30C0
1080
0000
0000
0000
0000
0000
ENDCHAR
STARTCHAR char24
ENCODING 24
SWIDTH 1988 0
DWIDTH 14 0
BBX 12 20 0 -4
BITMAP
0000
0000
0000
0000
0000
0000
0800
1800
3000
6000
FFF0
FFF0
6000
3000
1800
0800
0000
0000
0000
0000
ENDCHAR
STARTCHAR char25
ENCODING 25
SWIDTH 1988 0
DWIDTH 14 0
BBX 12 20 0 -4
BITMAP
0000
0000
0000
0000
0000
0000
0100
0180
00C0
0060
FFF0
FFF0
0060
00C0
0180
0100
0000
0000
0000
0000
ENDCHAR
STARTCHAR char26
ENCODING 26
SWIDTH 1704 0
DWIDTH 12 0
BBX 10 20 0 -4
BITMAP
0000
00C0
00C0
01C0
0180
0380
0300
0700
FFC0
FFC0
0C00
FFC0
FFC0
3000
3000
6000
6000
C000
C000
0000
ENDCHAR
STARTCHAR char27
ENCODING 27
SWIDTH 1846 0
DWIDTH 13 0
BBX 10 20 1 -4
BITMAP
0000
0000
0000
0000
0000
0000
0000
0000
0000
3840
7CC0
6D80
CF80
8700
0000
0000
0000
0000
0000
0000
ENDCHAR
STARTCHAR char28
ENCODING 28
SWIDTH 1704 0
DWIDTH 12 0
BBX 10 20 0 -4
BITMAP
0000
0000
00C0
03C0
0F00
3C00
F000
F000
3C00
0F00
03C0
00C0
0000
0000
FFC0
FFC0
0000
0000
0000
0000
ENDCHAR
STARTCHAR char29
ENCODING 29
SWIDTH 1704 0
DWIDTH 12 0
BBX 10 20 0 -4
BITMAP
0000
0000
C000
F000
3C00
0F00
03C0
03C0
0F00
3C00
F000
C000
0000
0000
FFC0
FFC0
0000
0000
0000
0000
ENDCHAR
STARTCHAR char30
ENCODING 30
SWIDTH 1278 0
DWIDTH 9 0
BBX 7 20 0 -4
BITMAP
00
00
00
00
00
00
00
00
FE
00
FE
00
FE
00
00
00
00
00
00
00
ENDCHAR
STARTCHAR char31
ENCODING 31
SWIDTH 1562 0
DWIDTH 11 0
BBX 9 20 0 -4
BITMAP
0000
0000
0000
0000
C180
C180
C180
6300
6300
6300
3600
3600
3600
1C00
1C00
0800
0000
0000
0000
0000
ENDCHAR
STARTCHAR char32
ENCODING 32
SWIDTH 1136 0
DWIDTH 8 0
BBX 1 20 0 -4
BITMAP
00
00
00
00
00
00
00
00
00
00
00
00
00
00
00
00
00
00
00
00
ENDCHAR
STARTCHAR char33
ENCODING 33
SWIDTH 852 0
DWIDTH 6 0
BBX 2 20 1 -4
BITMAP
00
00
C0
C0
C0
C0
C0
C0
C0
C0
C0
C0
00
00
C0
C0
00
00
00
00
ENDCHAR
STARTCHAR char34
ENCODING 34
SWIDTH 1278 0
DWIDTH 9 0
BBX 6 20 1 -4
BITMAP
CC
CC
CC
CC
CC
44
00
00
00
00
00
00
00
00
00
00
00
00
00
00
ENDCHAR
STARTCHAR char35
ENCODING 35
SWIDTH 1846 0
DWIDTH 13 0
BBX 10 20 1 -4
BITMAP
0000
0000
0000
0000
0000
3300
3300
FFC0
FFC0
3300
3300
FFC0
FFC0
3300
3300
0000
0000
0000
0000
0000
ENDCHAR
STARTCHAR char36
ENCODING 36
SWIDTH 1562 0
DWIDTH 11 0
BBX 9 20 0 -4
BITMAP
1400
1400
3E00
7700
D580
D580
F500
7C00
3C00
1E00
1700
5580
D480
D480
F580
7F00
1400
1400
0000
0000
ENDCHAR
STARTCHAR char37
ENCODING 37
SWIDTH 1704 0
DWIDTH 12 0
BBX 10 20 0 -4
BITMAP
0000
07C0
7CC0
9180
9180
9300
6300
0600
0600
0C00
0C00
1800
1980
3240
3240
6180
0000
0000
0000
0000
ENDCHAR
STARTCHAR char38
ENCODING 38
SWIDTH 2130 0
DWIDTH 15 0
BBX 13 20 0 -4
BITMAP
0000
0600
0F00
1B80
1180
1180
1B00
0E00
1C78
3C10
6630
C720
C360
C3C0
67F8
3C60
0000
0000
0000
0000
ENDCHAR
STARTCHAR char39
ENCODING 39
SWIDTH 710 0
DWIDTH 5 0
BBX 3 20 0 -4
BITMAP
00
C0
E0
60
20
60
C0
00
00
00
00
00
00
00
00
00
00
00
00
00
ENDCHAR
STARTCHAR char40
ENCODING 40
SWIDTH 1136 0
DWIDTH 8 0
BBX 5 20 1 -4
BITMAP
08
18
30
30
60
60
C0
C0
C0
C0
C0
C0
60
60
30
30
18
08
00
00
ENDCHAR
STARTCHAR char41
ENCODING 41
SWIDTH 1136 0
DWIDTH 8 0
BBX 5 20 1 -4
BITMAP
80
C0
60
60
30
30
18
18
18
18
18
18
30
30
60
60
C0
80
00
00
ENDCHAR
STARTCHAR char42
ENCODING 42
SWIDTH 1278 0
DWIDTH 9 0
BBX 7 20 0 -4
BITMAP
00
00
00
00
00
00
00
10
10
D6
38
38
D6
10
10
00
00
00
00
00
ENDCHAR
STARTCHAR char43
ENCODING 43
SWIDTH 1420 0
DWIDTH 10 0
BBX 8 20 0 -4
BITMAP
00
00
00
00
00
00
00
18
18
18
FF
FF
18
18
18
00
00
00
00
00
ENDCHAR
STARTCHAR char44
ENCODING 44
SWIDTH 710 0
DWIDTH 5 0
BBX 3 20 0 -4
BITMAP
00
00
00
00
00
00
00
00
00
00
00
00
00
E0
E0
20
20
60
C0
80
ENDCHAR
STARTCHAR char45
ENCODING 45
SWIDTH 1420 0
DWIDTH 10 0
BBX 8 20 0 -4
BITMAP
00
00
00
00
00
00
00
00
00
00
FF
FF
00
00
00
00
00
00
00
00
ENDCHAR
STARTCHAR char46
ENCODING 46
SWIDTH 568 0
DWIDTH 4 0
BBX 2 20 0 -4
BITMAP
00
00
00
00
00
00
00
00
00
00
00
00
00
00
C0
C0
00
00
00
00
ENDCHAR
STARTCHAR char47
ENCODING 47
SWIDTH 1420 0
DWIDTH 10 0
BBX 8 20 0 -4
BITMAP
03
03
07
06
06
0E
0C
0C
1C
18
18
38
30
30
70
60
60
E0
C0
C0
ENDCHAR
STARTCHAR char48
ENCODING 48
SWIDTH 1846 0
DWIDTH 13 0
BBX 11 20 0 -4
BITMAP
0000
1F00
3F80
71C0
60C0
E0E0
C060
C060
C060
C060
C060
E0E0
60C0
71C0
3F80
1F00
0000
0000
0000
0000
ENDCHAR
STARTCHAR char49
ENCODING 49
SWIDTH 1846 0
DWIDTH 13 0
BBX 5 20 3 -4
BITMAP
00
30
F0
30
30
30
30
30
30
30
30
30
30
30
78
78
00
00
00
00
ENDCHAR
STARTCHAR char50
ENCODING 50
SWIDTH 1846 0
DWIDTH 13 0
BBX 10 20 1 -4
BITMAP
0000
3F00
7F80
F3C0
C0C0
C0C0
01C0
0380
0700
0E00
3C00
7000
6000
E000
FFC0
FFC0
0000
0000
0000
0000
ENDCHAR
STARTCHAR char51
ENCODING 51
SWIDTH 1846 0
DWIDTH 13 0
BBX 11 20 0 -4
BITMAP
0000
3F80
7FC0
E0E0
C060
C060
00E0
03C0
1F00
03C0
00E0
C060
C060
E0E0
7FC0
3F80
0000
0000
0000
0000
ENDCHAR
STARTCHAR char52
ENCODING 52
SWIDTH 1846 0
DWIDTH 13 0
BBX 11 20 0 -4
BITMAP
0000
03C0
07C0
0EC0
0CC0
18C0
38C0
30C0
70C0
60C0
FFE0
FFE0
00C0
00C0
00C0
00C0
0000
0000
0000
0000
ENDCHAR
STARTCHAR char53
ENCODING 53
SWIDTH 1846 0
DWIDTH 13 0
BBX 10 20 1 -4
BITMAP
0000
FF80
FF80
C000
C000
C000
DF00
FF80
F1C0
C0C0
00C0
00C0
00C0
E1C0
7F80
3F00
0000
0000
0000
0000
ENDCHAR
STARTCHAR char54
ENCODING 54
SWIDTH 1846 0
DWIDTH 13 0
BBX 10 20 1 -4
BITMAP
0000
1E00
3F00
7180
6000
E000
CE00
DF80
F380
E1C0
E0C0
C0C0
E1C0
7380
7F80
1E00
0000
0000
0000
0000
ENDCHAR
STARTCHAR char55
ENCODING 55
SWIDTH 1846 0
DWIDTH 13 0
BBX 10 20 1 -4
BITMAP
0000
FFC0
FFC0
0180
0380
0300
0700
0600
0E00
0C00
1C00
1800
3800
3000
7000
6000
0000
0000
0000
0000
ENDCHAR
STARTCHAR char56
ENCODING 56
SWIDTH 1846 0
DWIDTH 13 0
BBX 11 20 1 -4
BITMAP
0000
1F00
3F80
60C0
60C0
60C0
3B80
1F00
0E00
3F80
71C0
C060
C060
E0E0
7FC0
3F80
0000
0000
0000
0000
ENDCHAR
STARTCHAR char57
ENCODING 57
SWIDTH 1846 0
DWIDTH 13 0
BBX 10 20 1 -4
BITMAP
0000
3E00
7F00
E380
C1C0
C1C0
C1C0
C1C0
E3C0
7FC0
3EC0
00C0
00C0
E1C0
7F80
3F00
0000
0000
0000
0000
ENDCHAR
STARTCHAR char58
ENCODING 58
SWIDTH 710 0
DWIDTH 5 0
BBX 2 20 1 -4
BITMAP
00
00
00
00
00
00
00
C0
C0
00
00
00
C0
C0
00
00
00
00
00
00
ENDCHAR
STARTCHAR char59
ENCODING 59
SWIDTH 710 0
DWIDTH 5 0
BBX 2 20 1 -4
BITMAP
00
00
00
00
00
00
00
C0
C0
00
00
00
C0
C0
40
40
C0
80
00
00
ENDCHAR
STARTCHAR char60
ENCODING 60
SWIDTH 1846 0
DWIDTH 13 0
BBX 10 20 1 -4
BITMAP
0000
0000
0000
0000
0000
0000
00C0
03C0
0F00
3C00
F000
F000
3C00
0F00
03C0
00C0
0000
0000
0000
0000
ENDCHAR
STARTCHAR char61
ENCODING 61
SWIDTH 1420 0
DWIDTH 10 0
BBX 8 20 0 -4
BITMAP
00
00
00
00
00
00
00
00
FF
FF
00
FF
FF
00
00
00
00
00
00
00
ENDCHAR
STARTCHAR char62
ENCODING 62
SWIDTH 1846 0
DWIDTH 13 0
BBX 10 20 1 -4
BITMAP
0000
0000
0000
0000
0000
0000
C000
F000
3C00
0F00
03C0
03C0
0F00
3C00
F000
C000
0000
0000
0000
0000
ENDCHAR
STARTCHAR char63
ENCODING 63
SWIDTH 1278 0
DWIDTH 9 0
BBX 7 20 0 -4
BITMAP
00
3C
66
C2
C2
06
0E
1C
18
30
20
20
00
00
30
30
00
00
00
00
ENDCHAR
STARTCHAR char64
ENCODING 64
SWIDTH 1988 0
DWIDTH 14 0
BBX 12 20 0 -4
BITMAP
0000
0000
0000
0000
1F80
3FC0
6060
4020
CF30
9990
9090
9090
99F0
CFE0
4000
6000
3FF0
0000
0000
0000
ENDCHAR
STARTCHAR char65
ENCODING 65
SWIDTH 1846 0
DWIDTH 13 0
BBX 11 20 0 -4
BITMAP
0E00
0E00
1F00
1B00
1B00
3B80
3180
71C0
60C0
7FC0
7FC0
E0E0
E0E0
C060
C060
C060
0000
0000
0000
0000
ENDCHAR
STARTCHAR char66
ENCODING 66
SWIDTH 1988 0
DWIDTH 14 0
BBX 11 20 1 -4
BITMAP
FF80
FFC0
C0E0
C060
C060
C0E0
C1C0
FF80
FF80
C1C0
C0E0
C060
C060
C0E0
FFC0
FF80
0000
0000
0000
0000
ENDCHAR
STARTCHAR char67
ENCODING 67
SWIDTH 1988 0
DWIDTH 14 0
BBX 12 20 0 -4
BITMAP
1FC0
3FE0
78F0
6030
E030
C000
C000
C000
C000
C000
C000
E030
6030
70F0
3FE0
1FC0
0000
0000
0000
0000
ENDCHAR
STARTCHAR char68
ENCODING 68
SWIDTH 1988 0
DWIDTH 14 0
BBX 11 20 1 -4
BITMAP
FF00
FF80
C3C0
C0E0
C060
C060
C060
C060
C060
C060
C060
C060
C0E0
C3C0
FF80
FF00
0000
0000
0000
0000
ENDCHAR
STARTCHAR char69
ENCODING 69
SWIDTH 1704 0
DWIDTH 12 0
BBX 9 20 1 -4
BITMAP
FF80
FF80
C000
C000
C000
C000
C000
FE00
FE00
C000
C000
C000
C000
C000
FF80
FF80
0000
0000
0000
0000
ENDCHAR
STARTCHAR char70
ENCODING 70
SWIDTH 1704 0
DWIDTH 12 0
BBX 9 20 1 -4
BITMAP
FF80
FF80
C000
C000
C000
C000
C000
FE00
FE00
C000
C000
C000
C000
C000
C000
C000
0000
0000
0000
0000
ENDCHAR
STARTCHAR char71
ENCODING 71
SWIDTH 1988 0
DWIDTH 14 0
BBX 11 20 1 -4
BITMAP
3F80
7FC0
F0E0
E060
C060
C000
C000
C000
C3E0
C3E0
C060
C060
E0E0
F1E0
7FA0
3F20
0000
0000
0000
0000
ENDCHAR
STARTCHAR char72
ENCODING 72
SWIDTH 1846 0
DWIDTH 13 0
BBX 10 20 1 -4
BITMAP
C0C0
C0C0
C0C0
C0C0
C0C0
C0C0
C0C0
FFC0
FFC0
C0C0
C0C0
C0C0
C0C0
C0C0
C0C0
C0C0
0000
0000
0000
0000
ENDCHAR
STARTCHAR char73
ENCODING 73
SWIDTH 710 0
DWIDTH 5 0
BBX 2 20 1 -4
BITMAP
C0
C0
C0
C0
C0
C0
C0
C0
C0
C0
C0
C0
C0
C0
C0
C0
00
00
00
00
ENDCHAR
STARTCHAR char74
ENCODING 74
SWIDTH 1420 0
DWIDTH 10 0
BBX 8 20 0 -4
BITMAP
03
03
03
03
03
03
03
03
03
03
03
03
03
E7
7F
3E
00
00
00
00
ENDCHAR
STARTCHAR char75
ENCODING 75
SWIDTH 1846 0
DWIDTH 13 0
BBX 10 20 1 -4
BITMAP
C0C0
C1C0
C380
C700
CE00
DC00
F800
F800
FC00
DC00
CE00
C600
C700
C300
C380
C180
0000
0000
0000
0000
ENDCHAR
STARTCHAR char76
ENCODING 76
SWIDTH 1562 0
DWIDTH 11 0
BBX 8 20 1 -4
BITMAP
C0
C0
C0
C0
C0
C0
C0
C0
C0
C0
C0
C0
C0
C0
FF
FF
00
00
00
00
ENDCHAR
STARTCHAR char77
ENCODING 77
SWIDTH 2272 0
DWIDTH 16 0
BBX 13 20 1 -4
BITMAP
C018
C018
E038
E038
F078
F078
F078
F8F8
D8D8
DDD8
CD98
CF98
CF98
C718
C718
C218
0000
0000
0000
0000
ENDCHAR
STARTCHAR char78
ENCODING 78
SWIDTH 1988 0
DWIDTH 14 0
BBX 11 20 1 -4
BITMAP
E060
F060
F060
F860
D860
DC60
CC60
CE60
C660
C760
C360
C3E0
C1E0
C1E0
C0E0
C060
0000
0000
0000
0000
ENDCHAR
STARTCHAR char79
ENCODING 79
SWIDTH 1988 0
DWIDTH 14 0
BBX 12 20 0 -4
BITMAP
0F00
3FC0
70E0
6060
E070
C030
C030
C030
C030
C030
C030
E070
6060
70E0
3FC0
0F00
0000
0000
0000
0000
ENDCHAR
STARTCHAR char80
ENCODING 80
SWIDTH 1846 0
DWIDTH 13 0
BBX 10 20 1 -4
BITMAP
FF00
FF80
C1C0
C0C0
C0C0
C0C0
C0C0
C1C0
FF80
FF00
C000
C000
C000
C000
C000
C000
0000
0000
0000
0000
ENDCHAR
STARTCHAR char81
ENCODING 81
SWIDTH 1988 0
DWIDTH 14 0
BBX 12 20 0 -4
BITMAP
0F00
3FC0
70E0
6060
E070
C030
C030
C030
C030
C030
C030
E070
6060
70E0
3FC0
0F00
01E0
00E0
0000
0000
ENDCHAR
STARTCHAR char82
ENCODING 82
SWIDTH 1846 0
DWIDTH 13 0
BBX 10 20 1 -4
BITMAP
FF00
FF80
C1C0
C0C0
C0C0
C0C0
C0C0
C1C0
FF80
FF00
C600
C700
C300
C180
C1C0
C0C0
0000
0000
0000
0000
ENDCHAR
STARTCHAR char83
ENCODING 83
SWIDTH 1704 0
DWIDTH 12 0
BBX 10 20 0 -4
BITMAP
1E00
7F80
E1C0
C0C0
C0C0
C000
E000
7E00
3F80
03C0
00C0
00C0
C0C0
E1C0
7F80
1E00
0000
0000
0000
0000
ENDCHAR
STARTCHAR char84
ENCODING 84
SWIDTH 1704 0
DWIDTH 12 0
BBX 10 20 0 -4
BITMAP
FFC0
FFC0
0C00
0C00
0C00
0C00
0C00
0C00
0C00
0C00
0C00
0C00
0C00
0C00
0C00
0C00
0000
0000
0000
0000
ENDCHAR
STARTCHAR char85
ENCODING 85
SWIDTH 1988 0
DWIDTH 14 0
BBX 11 20 1 -4
BITMAP
C060
C060
C060
C060
C060
C060
C060
C060
C060
C060
C060
C060
C060
E0E0
FFE0
7FC0
0000
0000
0000
0000
ENDCHAR
STARTCHAR char86
ENCODING 86
SWIDTH 2130 0
DWIDTH 15 0
BBX 13 20 0 -4
BITMAP
C018
C018
E038
E038
6030
7070
3060
38E0
38E0
18C0
1DC0
1DC0
0D80
0F80
0700
0700
0000
0000
0000
0000
ENDCHAR
STARTCHAR char87
ENCODING 87
SWIDTH 2556 0
DWIDTH 18 0
BBX 16 20 0 -4
BITMAP
C183
C183
C183
C183
E3C7
63C6
63C6
67E6
7666
366C
366C
366C
366C
3E7C
1C38
1C38
0000
0000
0000
0000
ENDCHAR
STARTCHAR char88
ENCODING 88
SWIDTH 1704 0
DWIDTH 12 0
BBX 10 20 0 -4
BITMAP
C0C0
C0C0
E1C0
6180
3300
3F00
1E00
0C00
1E00
3F00
3300
6180
E1C0
C0C0
C0C0
C0C0
0000
0000
0000
0000
ENDCHAR
STARTCHAR char89
ENCODING 89
SWIDTH 1704 0
DWIDTH 12 0
BBX 10 20 0 -4
BITMAP
C0C0
C0C0
C0C0
E1C0
6180
7380
3300
3F00
1E00
1E00
0C00
0C00
0C00
0C00
0C00
0C00
0000
0000
0000
0000
ENDCHAR
STARTCHAR char90
ENCODING 90
SWIDTH 1562 0
DWIDTH 11 0
BBX 9 20 0 -4
BITMAP
FF80
FF80
0380
0300
0700
0E00
0E00
1C00
1800
3800
3000
7000
E000
E000
FF80
FF80
0000
0000
0000
0000
ENDCHAR
STARTCHAR char91
ENCODING 91
SWIDTH 1136 0
DWIDTH 8 0
BBX 5 20 1 -4
BITMAP
F8
F8
C0
C0
C0
C0
C0
C0
C0
C0
C0
C0
C0
C0
C0
C0
C0
C0
F8
F8
ENDCHAR
STARTCHAR char92
ENCODING 92
SWIDTH 1420 0
DWIDTH 10 0
BBX 8 20 0 -4
BITMAP
C0
C0
E0
60
60
70
30
30
38
18
18
1C
0C
0C
0E
06
06
07
03
03
ENDCHAR
STARTCHAR char93
ENCODING 93
SWIDTH 1136 0
DWIDTH 8 0
BBX 5 20 1 -4
BITMAP
F8
F8
18
18
18
18
18
18
18
18
18
18
18
18
18
18
18
18
F8
F8
ENDCHAR
STARTCHAR char94
ENCODING 94
SWIDTH 1704 0
DWIDTH 12 0
BBX 10 20 0 -4
BITMAP
0000
0C00
1E00
3F00
6D80
CCC0
0C00
0C00
0C00
0C00
0C00
0C00
0C00
0C00
0C00
0C00
0000
0000
0000
0000
ENDCHAR
STARTCHAR char95
ENCODING 95
SWIDTH 2840 0
DWIDTH 20 0
BBX 20 20 0 -4
BITMAP
000000
000000
000000
000000
000000
000000
000000
000000
000000
000000
000000
000000
000000
000000
000000
000000
000000
FFFFF0
FFFFF0
000000
ENDCHAR
STARTCHAR char96
ENCODING 96
SWIDTH 852 0
DWIDTH 6 0
BBX 3 20 1 -4
BITMAP
00
E0
E0
80
80
C0
60
00
00
00
00
00
00
00
00
00
00
00
00
00
ENDCHAR
STARTCHAR char97
ENCODING 97
SWIDTH 1420 0
DWIDTH 10 0
BBX 8 20 0 -4
BITMAP
00
00
00
00
00
00
3C
7E
C7
83
3F
67
C3
C7
FF
7B
00
00
00
00
ENDCHAR
STARTCHAR char98
ENCODING 98
SWIDTH 1562 0
DWIDTH 11 0
BBX 9 20 0 -4
BITMAP
0000
C000
C000
C000
C000
C000
DE00
FF00
E380
C180
C180
C180
C180
E380
FF00
DE00
0000
0000
0000
0000
ENDCHAR
STARTCHAR char99
ENCODING 99
SWIDTH 1420 0
DWIDTH 10 0
BBX 8 20 0 -4
BITMAP
00
00
00
00
00
00
3E
7F
E3
C0
C0
C0
C0
E3
7F
3E
00
00
00
00
ENDCHAR
STARTCHAR char100
ENCODING 100
SWIDTH 1562 0
DWIDTH 11 0
BBX 9 20 0 -4
BITMAP
0000
0180
0180
0180
0180
0180
3D80
7F80
E380
C180
C180
C180
C180
E380
7F80
3D80
0000
0000
0000
0000
ENDCHAR
STARTCHAR char101
ENCODING 101
SWIDTH 1562 0
DWIDTH 11 0
BBX 9 20 0 -4
BITMAP
0000
0000
0000
0000
0000
0000
3E00
7F00
E380
C180
FF80
FF80
C000
E180
7F80
3E00
0000
0000
0000
0000
ENDCHAR
STARTCHAR char102
ENCODING 102
SWIDTH 1278 0
DWIDTH 9 0
BBX 7 20 0 -4
BITMAP
00
0E
1E
38
30
30
FE
FE
30
30
30
30
30
30
30
30
00
00
00
00
ENDCHAR
STARTCHAR char103
ENCODING 103
SWIDTH 1562 0
DWIDTH 11 0
BBX 9 20 0 -4
BITMAP
0000
0000
0000
0000
0000
3F80
7E00
E700
C300
E700
7E00
3C00
E000
3E00
6700
C380
E180
7300
3E00
0000
ENDCHAR
STARTCHAR char104
ENCODING 104
SWIDTH 1562 0
DWIDTH 11 0
BBX 8 20 1 -4
BITMAP
00
C0
C0
C0
C0
C0
DC
FE
E7
C3
C3
C3
C3
C3
C3
C3
00
00
00
00
ENDCHAR
STARTCHAR char105
ENCODING 105
SWIDTH 710 0
DWIDTH 5 0
BBX 2 20 1 -4
BITMAP
00
C0
C0
00
00
00
C0
C0
C0
C0
C0
C0
C0
C0
C0
C0
00
00
00
00
ENDCHAR
STARTCHAR char106
ENCODING 106
SWIDTH 852 0
DWIDTH 6 0
BBX 4 20 0 -4
BITMAP
00
30
30
00
00
30
30
30
30
30
30
30
30
30
30
30
70
E0
C0
00
ENDCHAR
STARTCHAR char107
ENCODING 107
SWIDTH 1420 0
DWIDTH 10 0
BBX 8 20 0 -4
BITMAP
00
C0
C0
C0
C0
C3
C7
CE
DC
F8
FC
EC
C6
C7
C3
C3
00
00
00
00
ENDCHAR
STARTCHAR char108
ENCODING 108
SWIDTH 710 0
DWIDTH 5 0
BBX 2 20 1 -4
BITMAP
C0
C0
C0
C0
C0
C0
C0
C0
C0
C0
C0
C0
C0
C0
C0
C0
00
00
00
00
ENDCHAR
STARTCHAR char109
ENCODING 109
SWIDTH 2130 0
DWIDTH 15 0
BBX 12 20 1 -4
BITMAP
0000
0000
0000
0000
0000
0000
D8C0
FDE0
E730
C630
C630
C630
C630
C630
C630
C630
0000
0000
0000
0000
ENDCHAR
STARTCHAR char110
ENCODING 110
SWIDTH 1562 0
DWIDTH 11 0
BBX 8 20 1 -4
BITMAP
00
00
00
00
00
00
DC
FE
E7
C3
C3
C3
C3
C3
C3
C3
00
00
00
00
ENDCHAR
STARTCHAR char111
ENCODING 111
SWIDTH 1562 0
DWIDTH 11 0
BBX 9 20 0 -4
BITMAP
0000
0000
0000
0000
0000
0000
1C00
7F00
6300
E380
C180
C180
E380
6300
7F00
1C00
0000
0000
0000
0000
ENDCHAR
STARTCHAR char112
ENCODING 112
SWIDTH 1704 0
DWIDTH 12 0
BBX 9 20 1 -4
BITMAP
0000
0000
0000
0000
0000
0000
DE00
FF00
E380
C180
C180
C180
C180
E380
FF00
DE00
C000
C000
C000
C000
ENDCHAR
STARTCHAR char113
ENCODING 113
SWIDTH 1704 0
DWIDTH 12 0
BBX 9 20 0 -4
BITMAP
0000
0000
0000
0000
0000
0000
3D80
7F80
E380
C180
C180
C180
C180
E380
7F80
3D80
0180
0180
0180
0180
ENDCHAR
STARTCHAR char114
ENCODING 114
SWIDTH 1278 0
DWIDTH 9 0
BBX 6 20 1 -4
BITMAP
00
00
00
00
00
00
CC
DC
F8
F0
E0
C0
C0
C0
C0
C0
00
00
00
00
ENDCHAR
STARTCHAR char115
ENCODING 115
SWIDTH 1562 0
DWIDTH 11 0
BBX 9 20 0 -4
BITMAP
0000
0000
0000
0000
0000
0000
1C00
7F00
C380
E180
3800
0E00
C380
E180
7F00
1C00
0000
0000
0000
0000
ENDCHAR
STARTCHAR char116
ENCODING 116
SWIDTH 1136 0
DWIDTH 8 0
BBX 6 20 0 -4
BITMAP
00
30
30
30
30
FC
FC
30
30
30
30
30
30
30
38
1C
00
00
00
00
ENDCHAR
STARTCHAR char117
ENCODING 117
SWIDTH 1562 0
DWIDTH 11 0
BBX 9 20 0 -4
BITMAP
0000
0000
0000
0000
0000
0000
C180
C180
C180
C180
C180
C180
C180
E380
7F00
3E00
0000
0000
0000
0000
ENDCHAR
STARTCHAR char118
ENCODING 118
SWIDTH 1562 0
DWIDTH 11 0
BBX 9 20 0 -4
BITMAP
0000
0000
0000
0000
0000
0000
C180
C180
C180
6300
6300
3600
3600
1C00
1C00
0800
0000
0000
0000
0000
ENDCHAR
STARTCHAR char119
ENCODING 119
SWIDTH 2130 0
DWIDTH 15 0
BBX 13 20 0 -4
BITMAP
0000
0000
0000
0000
0000
0000
C018
C218
E238
6730
7770
7770
3DE0
3DE0
18C0
18C0
0000
0000
0000
0000
ENDCHAR
STARTCHAR char120
ENCODING 120
SWIDTH 1562 0
DWIDTH 11 0
BBX 9 20 0 -4
BITMAP
0000
0000
0000
0000
0000
0000
E380
6300
3600
3600
1C00
1C00
3600
3600
6300
E380
0000
0000
0000
0000
ENDCHAR
STARTCHAR char121
ENCODING 121
SWIDTH 1704 0
DWIDTH 12 0
BBX 10 20 0 -4
BITMAP
0000
0000
0000
0000
0000
0000
C0C0
C0C0
E1C0
6180
7380
3300
3F00
1E00
0E00
0C00
1C00
1800
3800
7000
ENDCHAR
STARTCHAR char122
ENCODING 122
SWIDTH 1562 0
DWIDTH 11 0
BBX 9 20 0 -4
BITMAP
0000
0000
0000
0000
0000
0000
FF80
FF80
0700
0E00
1C00
3800
7000
E000
FF80
FF80
0000
0000
0000
0000
ENDCHAR
STARTCHAR char123
ENCODING 123
SWIDTH 1136 0
DWIDTH 8 0
BBX 6 20 0 -4
BITMAP
1C
30
60
60
70
30
30
20
40
40
C0
40
20
30
30
70
60
60
30
1C
ENDCHAR
STARTCHAR char124
ENCODING 124
SWIDTH 710 0
DWIDTH 5 0
BBX 2 20 1 -4
BITMAP
C0
C0
C0
C0
C0
C0
C0
C0
C0
C0
C0
C0
C0
C0
C0
C0
C0
C0
C0
C0
ENDCHAR
STARTCHAR char125
ENCODING 125
SWIDTH 1278 0
DWIDTH 9 0
BBX 6 20 1 -4
BITMAP
E0
30
18
18
38
30
30
10
08
0C
0C
08
10
30
30
38
18
18
30
E0
ENDCHAR
STARTCHAR char126
ENCODING 126
SWIDTH 1846 0
DWIDTH 13 0
BBX 10 20 1 -4
BITMAP
0000
0000
0000
0000
0000
0000
0000
0000
3840
7CC0
6D80
CF80
8700
0000
0000
0000
0000
0000
0000
0000
ENDCHAR
ENDFONT
